<svg width="192" height="192" viewBox="0 0 192 192" fill="none" xmlns="http://www.w3.org/2000/svg">
<path d="M192 96C192 42.9805 149.02 0 96 0C42.9805 0 0 42.9805 0 96C0 149.02 42.9805 192 96 192H192V176H149C175.84 158.23 191.988 128.191 192 96ZM143.023 160.723C132.301 168.512 117.289 166.137 109.5 155.41C101.711 144.688 104.086 129.68 114.809 121.887C125.535 114.098 140.543 116.473 148.332 127.199C156.125 137.922 153.746 152.93 143.023 160.723ZM141.844 55.8711C154.449 51.7734 167.988 58.6719 172.086 71.2773C176.18 83.8867 169.281 97.4258 156.676 101.52C144.07 105.617 130.531 98.7188 126.434 86.1133C122.34 73.5078 129.238 59.9648 141.844 55.8711ZM96 16C109.254 16 120 26.7461 120 40C120 53.2539 109.254 64 96 64C82.7461 64 72 53.2539 72 40C72 26.7461 82.7461 16 96 16ZM19.9141 71.2773C24.0117 58.6719 37.5508 51.7734 50.1562 55.8672C62.7617 59.9648 69.6602 73.5039 65.5664 86.1094C61.4688 98.7148 47.9297 105.613 35.3242 101.52C22.7188 97.4258 15.8203 83.8867 19.9141 71.2773ZM82.5 155.41C74.7109 166.137 59.6992 168.512 48.9766 160.723C38.2539 152.93 35.875 137.922 43.668 127.199C51.457 116.477 66.4688 114.098 77.1914 121.891C87.9141 129.68 90.2891 144.688 82.5 155.41ZM88 96C88 91.582 91.582 88 96 88C100.418 88 104 91.582 104 96C104 100.418 100.418 104 96 104C91.582 104 88 100.418 88 96Z" fill="white"/>
</svg>
